<mxfile host="Electron" agent="Mozilla/5.0 (X11; Linux x86_64) AppleWebKit/537.36 (KHTML, like Gecko) draw.io/26.1.1 Chrome/132.0.6834.210 Electron/34.3.3 Safari/537.36" version="26.1.1">
  <diagram name="Page-1" id="3o23iebmpu_T5EfCiTYN">
    <mxGraphModel dx="474" dy="471" grid="0" gridSize="10" guides="1" tooltips="1" connect="1" arrows="1" fold="1" page="0" pageScale="1" pageWidth="850" pageHeight="1100" math="0" shadow="0">
      <root>
        <mxCell id="0" />
        <mxCell id="1" parent="0" />
        <mxCell id="K-DYUEjg4lvjoq926TzC-3" value="&lt;span style=&quot;font-size: 18px;&quot;&gt;Business-Resource-Server&lt;/span&gt;" style="rounded=1;whiteSpace=wrap;html=1;fillColor=#60a917;fontColor=#ffffff;strokeColor=#2D7600;" parent="1" vertex="1">
          <mxGeometry x="1746.5" y="969" width="233" height="34" as="geometry" />
        </mxCell>
        <mxCell id="K-DYUEjg4lvjoq926TzC-13" value="&lt;font style=&quot;font-size: 18px;&quot;&gt;User-Resource-Server&lt;br&gt;&lt;/font&gt;" style="rounded=1;whiteSpace=wrap;html=1;fillColor=#60a917;fontColor=#ffffff;strokeColor=#2D7600;" parent="1" vertex="1">
          <mxGeometry x="2113" y="969" width="198" height="34" as="geometry" />
        </mxCell>
        <mxCell id="n5KJLASTJhVCS_o2J30F-1" value="&lt;font style=&quot;font-size: 18px;&quot;&gt;Public-Resource-Server&lt;br&gt;&lt;/font&gt;" style="rounded=1;whiteSpace=wrap;html=1;fillColor=#60a917;fontColor=#ffffff;strokeColor=#2D7600;" parent="1" vertex="1">
          <mxGeometry x="1409" y="969" width="209" height="34" as="geometry" />
        </mxCell>
        <mxCell id="IAOd6I0kj4MynixOwEjw-20" style="edgeStyle=orthogonalEdgeStyle;rounded=0;orthogonalLoop=1;jettySize=auto;html=1;entryX=0.5;entryY=0;entryDx=0;entryDy=0;" parent="1" source="IAOd6I0kj4MynixOwEjw-1" target="IAOd6I0kj4MynixOwEjw-19" edge="1">
          <mxGeometry relative="1" as="geometry" />
        </mxCell>
        <mxCell id="IAOd6I0kj4MynixOwEjw-26" style="edgeStyle=orthogonalEdgeStyle;rounded=0;orthogonalLoop=1;jettySize=auto;html=1;entryX=0.5;entryY=1;entryDx=0;entryDy=0;" parent="1" source="IAOd6I0kj4MynixOwEjw-1" target="IAOd6I0kj4MynixOwEjw-24" edge="1">
          <mxGeometry relative="1" as="geometry" />
        </mxCell>
        <mxCell id="IAOd6I0kj4MynixOwEjw-42" style="edgeStyle=orthogonalEdgeStyle;rounded=0;orthogonalLoop=1;jettySize=auto;html=1;entryX=0;entryY=0.5;entryDx=0;entryDy=0;" parent="1" source="IAOd6I0kj4MynixOwEjw-1" target="IAOd6I0kj4MynixOwEjw-2" edge="1">
          <mxGeometry relative="1" as="geometry">
            <Array as="points">
              <mxPoint x="2185" y="672" />
              <mxPoint x="2185" y="562" />
            </Array>
          </mxGeometry>
        </mxCell>
        <mxCell id="IAOd6I0kj4MynixOwEjw-1" value="&lt;span style=&quot;font-size: 18px;&quot;&gt;Backend-Client&lt;/span&gt;" style="rounded=1;whiteSpace=wrap;html=1;fillColor=#1ba1e2;fontColor=#ffffff;strokeColor=#006EAF;" parent="1" vertex="1">
          <mxGeometry x="1793" y="655" width="140" height="34" as="geometry" />
        </mxCell>
        <mxCell id="IAOd6I0kj4MynixOwEjw-44" style="edgeStyle=orthogonalEdgeStyle;rounded=0;orthogonalLoop=1;jettySize=auto;html=1;entryX=1;entryY=0.5;entryDx=0;entryDy=0;" parent="1" source="IAOd6I0kj4MynixOwEjw-2" target="IAOd6I0kj4MynixOwEjw-1" edge="1">
          <mxGeometry relative="1" as="geometry">
            <Array as="points">
              <mxPoint x="2186" y="562" />
              <mxPoint x="2186" y="672" />
            </Array>
          </mxGeometry>
        </mxCell>
        <mxCell id="IAOd6I0kj4MynixOwEjw-45" style="edgeStyle=orthogonalEdgeStyle;rounded=0;orthogonalLoop=1;jettySize=auto;html=1;entryX=1;entryY=0.5;entryDx=0;entryDy=0;" parent="1" source="IAOd6I0kj4MynixOwEjw-2" target="IAOd6I0kj4MynixOwEjw-24" edge="1">
          <mxGeometry relative="1" as="geometry" />
        </mxCell>
        <mxCell id="IAOd6I0kj4MynixOwEjw-2" value="&lt;span style=&quot;font-size: 18px;&quot;&gt;Security-Server&lt;/span&gt;" style="rounded=1;whiteSpace=wrap;html=1;fillColor=#a20025;fontColor=#ffffff;strokeColor=#6F0000;" parent="1" vertex="1">
          <mxGeometry x="2468" y="545" width="142" height="34" as="geometry" />
        </mxCell>
        <mxCell id="IAOd6I0kj4MynixOwEjw-14" style="edgeStyle=orthogonalEdgeStyle;rounded=0;orthogonalLoop=1;jettySize=auto;html=1;entryX=0.5;entryY=1;entryDx=0;entryDy=0;" parent="1" source="IAOd6I0kj4MynixOwEjw-3" target="IAOd6I0kj4MynixOwEjw-6" edge="1">
          <mxGeometry relative="1" as="geometry" />
        </mxCell>
        <mxCell id="IAOd6I0kj4MynixOwEjw-15" style="edgeStyle=orthogonalEdgeStyle;rounded=0;orthogonalLoop=1;jettySize=auto;html=1;entryX=0.5;entryY=1;entryDx=0;entryDy=0;" parent="1" source="IAOd6I0kj4MynixOwEjw-3" target="IAOd6I0kj4MynixOwEjw-4" edge="1">
          <mxGeometry relative="1" as="geometry" />
        </mxCell>
        <mxCell id="IAOd6I0kj4MynixOwEjw-3" value="&lt;font style=&quot;font-size: 18px;&quot;&gt;&lt;font style=&quot;color: rgb(255, 255, 255);&quot;&gt;API-Utils&lt;/font&gt;&lt;br&gt;&lt;/font&gt;" style="rounded=1;whiteSpace=wrap;html=1;fillColor=#fa6800;fontColor=#000000;strokeColor=#C73500;" parent="1" vertex="1">
          <mxGeometry x="1822" y="1180" width="88" height="34" as="geometry" />
        </mxCell>
        <mxCell id="IAOd6I0kj4MynixOwEjw-4" value="&lt;font style=&quot;font-size: 18px;&quot;&gt;&lt;font style=&quot;color: rgb(255, 255, 255);&quot;&gt;Business-Assets&lt;/font&gt;&lt;br&gt;&lt;/font&gt;" style="rounded=1;whiteSpace=wrap;html=1;fillColor=#fa6800;fontColor=#000000;strokeColor=#C73500;" parent="1" vertex="1">
          <mxGeometry x="1790.5" y="1096" width="151" height="34" as="geometry" />
        </mxCell>
        <mxCell id="IAOd6I0kj4MynixOwEjw-5" value="&lt;font style=&quot;font-size: 18px;&quot;&gt;&lt;font style=&quot;color: rgb(255, 255, 255);&quot;&gt;User-Assets&lt;/font&gt;&lt;br&gt;&lt;/font&gt;" style="rounded=1;whiteSpace=wrap;html=1;fillColor=#fa6800;fontColor=#000000;strokeColor=#C73500;" parent="1" vertex="1">
          <mxGeometry x="2157.5" y="1096" width="116" height="34" as="geometry" />
        </mxCell>
        <mxCell id="IAOd6I0kj4MynixOwEjw-6" value="&lt;font style=&quot;font-size: 18px; color: rgb(251, 251, 251);&quot;&gt;Public-Assets&lt;/font&gt;" style="rounded=1;whiteSpace=wrap;html=1;fillColor=#fa6800;fontColor=#000000;strokeColor=#C73500;" parent="1" vertex="1">
          <mxGeometry x="1452.5" y="1099" width="127" height="34" as="geometry" />
        </mxCell>
        <mxCell id="IAOd6I0kj4MynixOwEjw-16" value="&lt;font style=&quot;font-size: 14px; color: rgb(255, 255, 255);&quot;&gt;Public-Assets&lt;br&gt;Business-Assets&lt;br&gt;User-Assets&lt;/font&gt;" style="rounded=1;whiteSpace=wrap;html=1;fillColor=#fa6800;fontColor=#000000;strokeColor=#C73500;" parent="1" vertex="1">
          <mxGeometry x="1453" y="1003" width="121" height="62" as="geometry" />
        </mxCell>
        <mxCell id="IAOd6I0kj4MynixOwEjw-17" value="&lt;font color=&quot;#ffffff&quot;&gt;&lt;span style=&quot;font-size: 14px;&quot;&gt;Business-Assets&lt;/span&gt;&lt;/font&gt;" style="rounded=1;whiteSpace=wrap;html=1;fillColor=#fa6800;fontColor=#000000;strokeColor=#C73500;" parent="1" vertex="1">
          <mxGeometry x="1802.5" y="998" width="121" height="29" as="geometry" />
        </mxCell>
        <mxCell id="IAOd6I0kj4MynixOwEjw-18" value="&lt;font style=&quot;font-size: 14px; color: rgb(255, 255, 255);&quot;&gt;API-Utils&lt;br&gt;User-Assets&lt;/font&gt;" style="rounded=1;whiteSpace=wrap;html=1;fillColor=#fa6800;fontColor=#000000;strokeColor=#C73500;" parent="1" vertex="1">
          <mxGeometry x="2165" y="1003" width="94" height="46" as="geometry" />
        </mxCell>
        <mxCell id="IAOd6I0kj4MynixOwEjw-21" style="edgeStyle=orthogonalEdgeStyle;rounded=0;orthogonalLoop=1;jettySize=auto;html=1;" parent="1" source="IAOd6I0kj4MynixOwEjw-19" target="n5KJLASTJhVCS_o2J30F-1" edge="1">
          <mxGeometry relative="1" as="geometry" />
        </mxCell>
        <mxCell id="IAOd6I0kj4MynixOwEjw-22" style="edgeStyle=orthogonalEdgeStyle;rounded=0;orthogonalLoop=1;jettySize=auto;html=1;" parent="1" source="IAOd6I0kj4MynixOwEjw-19" target="K-DYUEjg4lvjoq926TzC-13" edge="1">
          <mxGeometry relative="1" as="geometry" />
        </mxCell>
        <mxCell id="IAOd6I0kj4MynixOwEjw-23" style="edgeStyle=orthogonalEdgeStyle;rounded=0;orthogonalLoop=1;jettySize=auto;html=1;entryX=0.5;entryY=0;entryDx=0;entryDy=0;" parent="1" source="IAOd6I0kj4MynixOwEjw-19" target="K-DYUEjg4lvjoq926TzC-3" edge="1">
          <mxGeometry relative="1" as="geometry" />
        </mxCell>
        <mxCell id="IAOd6I0kj4MynixOwEjw-19" value="&lt;font style=&quot;font-size: 14px;&quot;&gt;&lt;b style=&quot;&quot;&gt;Spring &lt;br&gt;Cloud &lt;br&gt;Gateway&lt;/b&gt;&lt;/font&gt;" style="rhombus;whiteSpace=wrap;html=1;fillColor=#f0a30a;fontColor=#000000;strokeColor=#BD7000;" parent="1" vertex="1">
          <mxGeometry x="1786.5" y="762" width="153" height="111" as="geometry" />
        </mxCell>
        <mxCell id="IAOd6I0kj4MynixOwEjw-25" style="edgeStyle=orthogonalEdgeStyle;rounded=0;orthogonalLoop=1;jettySize=auto;html=1;" parent="1" source="IAOd6I0kj4MynixOwEjw-24" target="IAOd6I0kj4MynixOwEjw-1" edge="1">
          <mxGeometry relative="1" as="geometry" />
        </mxCell>
        <mxCell id="IAOd6I0kj4MynixOwEjw-41" style="edgeStyle=orthogonalEdgeStyle;rounded=0;orthogonalLoop=1;jettySize=auto;html=1;entryX=0;entryY=0.5;entryDx=0;entryDy=0;" parent="1" source="IAOd6I0kj4MynixOwEjw-24" target="IAOd6I0kj4MynixOwEjw-2" edge="1">
          <mxGeometry relative="1" as="geometry" />
        </mxCell>
        <mxCell id="IAOd6I0kj4MynixOwEjw-24" value="&lt;span style=&quot;font-size: 18px;&quot;&gt;Angular&lt;/span&gt;" style="rounded=1;whiteSpace=wrap;html=1;fillColor=#6a00ff;fontColor=#ffffff;strokeColor=#3700CC;" parent="1" vertex="1">
          <mxGeometry x="1823" y="448" width="80" height="34" as="geometry" />
        </mxCell>
        <mxCell id="IAOd6I0kj4MynixOwEjw-32" value="&lt;font style=&quot;font-size: 14px; color: rgb(255, 255, 255);&quot;&gt;API-Utils&lt;br&gt;User-Assets&lt;/font&gt;" style="rounded=1;whiteSpace=wrap;html=1;fillColor=#fa6800;fontColor=#000000;strokeColor=#C73500;" parent="1" vertex="1">
          <mxGeometry x="2492" y="579" width="94" height="46" as="geometry" />
        </mxCell>
        <mxCell id="IAOd6I0kj4MynixOwEjw-35" value="OAuth2 Resource Server" style="whiteSpace=wrap;html=1;shape=mxgraph.basic.cloud_callout;fillColor=#0050ef;fontColor=#ffffff;strokeColor=#001DBC;" parent="1" vertex="1">
          <mxGeometry x="2224" y="891" width="184" height="84" as="geometry" />
        </mxCell>
        <mxCell id="IAOd6I0kj4MynixOwEjw-36" value="OAuth2 Resource Server" style="whiteSpace=wrap;html=1;shape=mxgraph.basic.cloud_callout;fillColor=#0050ef;fontColor=#ffffff;strokeColor=#001DBC;" parent="1" vertex="1">
          <mxGeometry x="1879" y="888" width="184" height="84" as="geometry" />
        </mxCell>
        <mxCell id="IAOd6I0kj4MynixOwEjw-37" value="OAuth2 Resource Server" style="whiteSpace=wrap;html=1;shape=mxgraph.basic.cloud_callout;fillColor=#0050ef;fontColor=#ffffff;strokeColor=#001DBC;" parent="1" vertex="1">
          <mxGeometry x="1518" y="891" width="184" height="84" as="geometry" />
        </mxCell>
        <mxCell id="IAOd6I0kj4MynixOwEjw-38" value="OAuth2 Client" style="whiteSpace=wrap;html=1;shape=mxgraph.basic.cloud_callout;fillColor=#0050ef;fontColor=#ffffff;strokeColor=#001DBC;" parent="1" vertex="1">
          <mxGeometry x="1867" y="575" width="184" height="84" as="geometry" />
        </mxCell>
        <mxCell id="IAOd6I0kj4MynixOwEjw-39" value="OAuth2 Authorization Server" style="whiteSpace=wrap;html=1;shape=mxgraph.basic.cloud_callout;fillColor=#0050ef;fontColor=#ffffff;strokeColor=#001DBC;" parent="1" vertex="1">
          <mxGeometry x="2540" y="469" width="184" height="84" as="geometry" />
        </mxCell>
      </root>
    </mxGraphModel>
  </diagram>
</mxfile>
